G04 #@! TF.FileFunction,Legend,Top*
%FSLAX46Y46*%
G04 Gerber Fmt 4.6, Leading zero omitted, Abs format (unit mm)*
G04 Created by KiCad (PCBNEW (2014-11-17 BZR 5289)-product) date Sun 18 Jan 2015 06:57:41 AM EST*
%MOMM*%
G01*
G04 APERTURE LIST*
%ADD10C,0.100000*%
%ADD11C,0.150000*%
G04 APERTURE END LIST*
D10*
D11*
X139700000Y-104140000D02*
X139700000Y-111760000D01*
X139700000Y-111760000D02*
X144780000Y-111760000D01*
X144780000Y-111760000D02*
X144780000Y-101600000D01*
X144780000Y-101600000D02*
X142240000Y-101600000D01*
X139700000Y-101600000D02*
X139700000Y-104140000D01*
X142240000Y-101600000D02*
X142240000Y-104140000D01*
X142240000Y-104140000D02*
X139700000Y-104140000D01*
X139700000Y-101600000D02*
X142240000Y-101600000D01*
X156210000Y-111760000D02*
X156210000Y-99060000D01*
X156210000Y-99060000D02*
X158750000Y-99060000D01*
X158750000Y-99060000D02*
X158750000Y-111760000D01*
X156210000Y-114300000D02*
X156210000Y-111760000D01*
X156210000Y-111760000D02*
X158750000Y-111760000D01*
X156210000Y-114300000D02*
X158750000Y-114300000D01*
X158750000Y-114300000D02*
X158750000Y-111760000D01*
X146502381Y-107418095D02*
X145502381Y-107418095D01*
X145502381Y-107037142D01*
X145550000Y-106941904D01*
X145597619Y-106894285D01*
X145692857Y-106846666D01*
X145835714Y-106846666D01*
X145930952Y-106894285D01*
X145978571Y-106941904D01*
X146026190Y-107037142D01*
X146026190Y-107418095D01*
X146502381Y-105894285D02*
X146502381Y-106465714D01*
X146502381Y-106180000D02*
X145502381Y-106180000D01*
X145645238Y-106275238D01*
X145740476Y-106370476D01*
X145788095Y-106465714D01*
X155646381Y-107418095D02*
X154646381Y-107418095D01*
X154646381Y-107037142D01*
X154694000Y-106941904D01*
X154741619Y-106894285D01*
X154836857Y-106846666D01*
X154979714Y-106846666D01*
X155074952Y-106894285D01*
X155122571Y-106941904D01*
X155170190Y-107037142D01*
X155170190Y-107418095D01*
X154741619Y-106465714D02*
X154694000Y-106418095D01*
X154646381Y-106322857D01*
X154646381Y-106084761D01*
X154694000Y-105989523D01*
X154741619Y-105941904D01*
X154836857Y-105894285D01*
X154932095Y-105894285D01*
X155074952Y-105941904D01*
X155646381Y-106513333D01*
X155646381Y-105894285D01*
M02*
